<?xml version="1.0" encoding="UTF-8"?>
<svg xmlns="http://www.w3.org/2000/svg" xmlns:xlink="http://www.w3.org/1999/xlink" width="120px" height="40px" viewBox="0 0 120 40" version="1.1">
<g id="surface1">
<path style=" stroke:none;fill-rule:nonzero;fill:rgb(0%,0%,0%);fill-opacity:1;" d="M 11.621094 14.246094 C 11.757812 14.089844 11.941406 13.953125 12.023438 13.773438 C 12.710938 12.199219 14.011719 11.1875 15.277344 10.128906 C 15.800781 9.6875 16.304688 9.214844 16.769531 8.710938 C 17.0625 8.390625 17.269531 7.980469 17.09375 7.507812 C 16.921875 7.039062 16.515625 6.886719 16.070312 6.800781 C 15.820312 6.75 15.457031 6.859375 15.417969 6.484375 C 15.382812 6.144531 15.734375 6.089844 15.960938 5.964844 C 16.40625 5.71875 16.921875 5.773438 17.453125 5.660156 C 17.222656 5.070312 16.734375 4.925781 16.292969 4.730469 C 16.070312 4.632812 15.757812 4.621094 15.773438 4.289062 C 15.785156 4.015625 16.050781 3.945312 16.257812 3.863281 C 17.417969 3.398438 18.503906 3.464844 19.4375 4.382812 C 19.746094 4.6875 20.078125 4.867188 20.535156 4.878906 C 20.953125 4.886719 21.335938 5.09375 21.699219 5.300781 C 21.863281 5.398438 22 5.542969 21.96875 5.757812 C 21.941406 5.957031 21.765625 5.996094 21.601562 6.042969 C 20.652344 6.304688 20.070312 7.015625 19.574219 7.789062 C 19.199219 8.378906 18.863281 8.996094 18.382812 9.628906 C 19.835938 10.007812 20.621094 11.066406 21.441406 12.085938 C 21.957031 12.730469 22.554688 13.207031 23.460938 13.097656 C 23.90625 13.042969 24.007812 13.3125 23.898438 13.6875 C 23.746094 14.195312 23.433594 14.601562 22.90625 14.710938 C 22.519531 14.792969 22.386719 14.972656 22.382812 15.339844 C 22.378906 15.542969 22.316406 15.75 22.265625 15.953125 C 22.085938 16.679688 21.824219 16.804688 21.265625 16.277344 C 20.839844 15.875 20.476562 15.902344 20 16.078125 C 19.644531 16.214844 19.257812 16.367188 18.847656 16.113281 C 18.867188 15.707031 19.144531 15.429688 19.332031 15.121094 C 19.730469 14.453125 19.871094 13.730469 19.867188 12.96875 C 19.867188 12.503906 19.625 12.191406 19.265625 11.9375 C 17.738281 10.851562 15.425781 11.261719 14.609375 12.816406 C 15.210938 12.746094 15.777344 12.660156 16.316406 12.984375 C 16.519531 13.105469 16.621094 12.828125 16.726562 12.6875 C 16.894531 12.449219 17.035156 12.191406 17.328125 12.074219 C 17.597656 11.96875 17.859375 11.945312 18.09375 12.144531 C 18.320312 12.335938 18.402344 12.578125 18.3125 12.871094 C 18.160156 13.363281 18.007812 13.855469 17.859375 14.335938 C 18.144531 14.535156 18.441406 14.410156 18.6875 14.519531 C 19.046875 14.679688 19.222656 14.878906 18.816406 15.1875 C 18.1875 15.65625 17.527344 16.09375 17 16.796875 C 18.214844 16.484375 18.648438 17.328125 19.089844 18.320312 C 19.175781 17.863281 18.992188 17.65625 18.949219 17.417969 C 18.90625 17.179688 18.746094 16.898438 18.96875 16.714844 C 19.207031 16.515625 19.4375 16.75 19.636719 16.875 C 20.066406 17.152344 20.511719 17.328125 21.035156 17.351562 C 22.082031 17.394531 22.824219 16.824219 23.441406 16.113281 C 23.855469 15.640625 24.253906 15.109375 24.457031 14.480469 C 24.507812 14.3125 24.601562 14.164062 24.792969 14.15625 C 25.023438 14.144531 25.074219 14.332031 25.15625 14.511719 C 25.519531 15.28125 25.902344 16.039062 26.535156 16.640625 C 27.378906 17.445312 28.324219 17.644531 29.402344 17.207031 C 29.519531 17.160156 29.632812 17.109375 29.746094 17.054688 C 30.582031 16.640625 30.605469 16.65625 30.570312 17.625 C 31.179688 17.144531 31.730469 16.460938 32.6875 17.261719 C 32.261719 16.492188 31.632812 16.175781 31.171875 15.699219 C 30.9375 15.457031 30.429688 15.292969 30.570312 14.917969 C 30.730469 14.480469 31.230469 14.609375 31.625 14.648438 C 31.683594 14.652344 31.746094 14.648438 31.875 14.648438 C 31.71875 14.167969 31.554688 13.710938 31.421875 13.246094 C 31.324219 12.902344 31.234375 12.5 31.609375 12.285156 C 32 12.066406 32.367188 12.296875 32.597656 12.601562 C 32.925781 13.039062 33.21875 13.289062 33.816406 13.011719 C 34.1875 12.84375 34.632812 13.046875 35.0625 13.152344 C 34.71875 12.375 34.058594 11.953125 33.304688 11.683594 C 32.597656 11.433594 31.863281 11.511719 31.152344 11.707031 C 30.058594 12.015625 29.515625 13.015625 29.792969 14.125 C 29.933594 14.699219 30.191406 15.214844 30.46875 15.730469 C 30.5625 15.90625 30.738281 16.0625 30.625 16.328125 C 30.140625 16.476562 29.699219 16.261719 29.277344 16.066406 C 28.945312 15.917969 28.714844 15.894531 28.460938 16.199219 C 28.265625 16.4375 27.984375 16.664062 27.652344 16.585938 C 27.273438 16.492188 27.296875 16.089844 27.261719 15.804688 C 27.183594 15.214844 27.042969 14.75 26.375 14.558594 C 25.859375 14.410156 25.808594 13.875 25.726562 13.429688 C 25.671875 13.132812 25.914062 13.0625 26.128906 13.105469 C 27.289062 13.339844 27.925781 12.570312 28.605469 11.855469 C 29.386719 11.035156 30.042969 10.046875 31.410156 9.835938 C 30.597656 8.742188 30.320312 7.449219 29.328125 6.601562 C 29.0625 6.371094 28.75 6.191406 28.386719 6.136719 C 28.210938 6.113281 28.0625 6.015625 28.035156 5.828125 C 28.011719 5.632812 28.160156 5.527344 28.308594 5.449219 C 28.492188 5.351562 28.675781 5.207031 28.871094 5.1875 C 29.785156 5.097656 30.527344 4.699219 31.25 4.144531 C 31.921875 3.625 33.300781 3.785156 33.972656 4.304688 C 34.355469 4.601562 34.320312 4.804688 33.851562 5 C 33.328125 5.214844 32.734375 5.324219 32.417969 5.980469 C 33.089844 5.953125 33.65625 6.117188 34.171875 6.441406 C 34.339844 6.546875 34.484375 6.679688 34.429688 6.894531 C 34.382812 7.09375 34.183594 7.089844 34.027344 7.128906 C 33.785156 7.183594 33.527344 7.214844 33.304688 7.316406 C 32.6875 7.59375 32.507812 8.167969 32.84375 8.757812 C 33.230469 9.441406 33.835938 9.933594 34.410156 10.441406 C 35.332031 11.253906 36.285156 12.046875 36.933594 13.109375 C 37.847656 14.609375 37.96875 16.238281 37.582031 17.941406 C 38.300781 17.429688 38.664062 16.253906 38.382812 15.398438 C 38.316406 15.199219 38.21875 15.015625 38.148438 14.820312 C 38.0625 14.578125 37.742188 14.34375 37.96875 14.089844 C 38.21875 13.816406 38.59375 13.980469 38.84375 14.121094 C 39.378906 14.429688 39.675781 14.277344 39.898438 13.757812 C 39.992188 13.542969 40.167969 13.386719 40.386719 13.292969 C 40.695312 13.167969 41.039062 12.964844 41.324219 13.226562 C 41.578125 13.457031 41.285156 13.722656 41.203125 13.964844 C 40.9375 14.769531 40.957031 14.800781 41.773438 14.996094 C 42.371094 15.136719 42.90625 15.390625 43.269531 16.054688 C 42.464844 16.261719 41.613281 16.238281 40.90625 16.898438 C 41.714844 17.375 41.949219 18.15625 42.03125 18.992188 C 44.652344 18.589844 44.652344 18.589844 45.292969 18.960938 C 45.042969 19.503906 44.363281 19.539062 44.035156 19.988281 C 44.210938 20.148438 44.367188 20.007812 44.511719 19.984375 C 45.769531 19.777344 46.609375 20.429688 47.332031 21.335938 C 47.503906 21.554688 47.359375 21.703125 47.214844 21.875 C 46.382812 22.875 45.371094 23.339844 43.984375 22.886719 C 44.265625 23.53125 44.984375 23.558594 45.269531 24.125 C 44.125 24.769531 43.078125 24.367188 41.980469 23.933594 C 41.742188 24.78125 41.660156 25.695312 40.742188 26.15625 C 41.296875 26.617188 41.917969 26.757812 42.5625 26.835938 C 42.746094 26.855469 42.976562 26.839844 43.042969 27.050781 C 43.125 27.316406 42.871094 27.402344 42.707031 27.515625 C 42.257812 27.824219 41.78125 28.085938 41.222656 28.117188 C 40.851562 28.136719 40.773438 28.300781 40.847656 28.648438 C 40.929688 29.03125 41.175781 29.367188 41.175781 29.769531 C 40.40625 30.0625 39.980469 29.796875 39.34375 28.644531 C 39.015625 28.601562 38.785156 28.882812 38.484375 28.933594 C 38.238281 28.976562 37.964844 29.101562 37.773438 28.886719 C 37.585938 28.675781 37.800781 28.457031 37.890625 28.257812 C 38.363281 27.234375 38.453125 26.21875 37.800781 25.226562 C 37.753906 25.160156 37.714844 25.085938 37.617188 24.917969 C 37.476562 25.316406 37.503906 25.582031 37.542969 25.835938 C 37.949219 28.457031 36.761719 30.34375 34.816406 31.917969 C 33.996094 32.585938 33.148438 33.230469 32.523438 34.113281 C 31.953125 34.917969 32.113281 35.523438 33.039062 35.832031 C 33.078125 35.84375 33.125 35.851562 33.15625 35.871094 C 33.402344 36.03125 33.90625 35.832031 33.917969 36.253906 C 33.933594 36.65625 33.464844 36.738281 33.171875 36.910156 C 32.78125 37.140625 32.339844 37.117188 31.835938 37.042969 C 32.085938 37.710938 32.621094 37.855469 33.113281 38.050781 C 33.339844 38.140625 33.648438 38.152344 33.671875 38.464844 C 33.695312 38.78125 33.378906 38.832031 33.167969 38.945312 C 31.964844 39.59375 30.960938 39.472656 29.996094 38.511719 C 29.746094 38.261719 29.484375 38.128906 29.121094 38.121094 C 28.589844 38.113281 28.105469 37.925781 27.679688 37.597656 C 27.542969 37.492188 27.398438 37.398438 27.410156 37.207031 C 27.417969 37.003906 27.585938 36.933594 27.75 36.890625 C 28.59375 36.671875 29.128906 36.0625 29.578125 35.378906 C 30.023438 34.707031 30.480469 34.035156 30.855469 33.171875 C 30.800781 33.148438 30.71875 33.117188 30.640625 33.085938 C 29.484375 32.628906 28.730469 31.703125 27.984375 30.777344 C 27.40625 30.054688 26.769531 29.519531 25.761719 29.695312 C 25.457031 29.746094 25.355469 29.578125 25.402344 29.28125 C 25.5 28.671875 25.816406 28.222656 26.421875 28.070312 C 26.851562 27.957031 26.996094 27.71875 26.960938 27.308594 C 26.953125 27.1875 26.964844 27.058594 26.988281 26.9375 C 27.144531 26.191406 27.589844 26.011719 28.109375 26.542969 C 28.460938 26.902344 28.75 27.019531 29.167969 26.710938 C 29.246094 26.652344 29.355469 26.621094 29.457031 26.601562 C 29.757812 26.546875 30.121094 26.324219 30.339844 26.59375 C 30.574219 26.878906 30.214844 27.152344 30.097656 27.421875 C 29.90625 27.859375 29.671875 28.285156 29.511719 28.730469 C 29.089844 29.894531 29.613281 30.902344 30.921875 31.257812 C 32.230469 31.617188 33.445312 31.359375 34.425781 30.34375 C 34.53125 30.230469 34.675781 30.117188 34.640625 29.886719 C 34.089844 29.914062 33.53125 30.050781 33.011719 29.714844 C 32.84375 29.605469 32.738281 29.835938 32.625 29.949219 C 32.40625 30.171875 32.207031 30.425781 31.953125 30.597656 C 31.449219 30.9375 31.042969 30.71875 31.035156 30.109375 C 31.03125 29.691406 31.097656 29.277344 31.304688 28.902344 C 31.40625 28.722656 31.535156 28.554688 31.53125 28.273438 C 31.21875 28.238281 30.882812 28.320312 30.578125 28.175781 C 30.222656 28.003906 30.152344 27.839844 30.476562 27.535156 C 30.949219 27.097656 31.578125 26.847656 31.953125 26.296875 C 32.007812 26.214844 32.058594 26.128906 32.15625 25.976562 C 31.714844 25.996094 31.316406 26.109375 30.984375 25.816406 C 30.6875 25.554688 30.539062 25.230469 30.429688 24.863281 C 30.347656 24.578125 30.144531 24.363281 29.769531 24.039062 C 30.191406 24.75 30.558594 25.300781 30.34375 25.984375 C 30.132812 26.128906 29.980469 26.003906 29.820312 25.910156 C 28.023438 24.886719 26.824219 25.449219 25.648438 26.898438 C 25.335938 27.28125 25.113281 27.742188 24.867188 28.175781 C 24.574219 28.699219 24.4375 28.714844 24.117188 28.1875 C 23.855469 27.761719 23.660156 27.296875 23.390625 26.878906 C 22.429688 25.375 21.058594 25 19.453125 25.777344 C 19.34375 25.832031 19.234375 25.902344 19.117188 25.945312 C 18.710938 26.101562 18.5625 25.949219 18.660156 25.535156 C 18.714844 25.292969 18.777344 25.054688 18.835938 24.820312 C 17.730469 24.351562 18.507812 23.390625 18.269531 22.710938 C 17.6875 22.722656 17.136719 23.117188 17.058594 23.597656 C 16.96875 24.175781 17.304688 24.472656 17.808594 24.65625 C 18.066406 24.753906 18.507812 24.691406 18.507812 25.054688 C 18.507812 25.421875 18.140625 25.640625 17.832031 25.808594 C 17.558594 25.957031 17.25 26.023438 16.839844 25.917969 C 17.234375 26.535156 17.742188 26.890625 18.203125 27.292969 C 18.394531 27.457031 18.761719 27.574219 18.667969 27.886719 C 18.566406 28.238281 18.171875 28.207031 17.871094 28.253906 C 17.734375 28.277344 17.585938 28.246094 17.394531 28.238281 C 17.402344 28.707031 17.667969 29.070312 17.785156 29.472656 C 17.917969 29.9375 17.925781 30.386719 17.488281 30.632812 C 17.074219 30.871094 16.703125 30.578125 16.476562 30.25 C 16.144531 29.761719 15.808594 29.585938 15.242188 29.898438 C 14.910156 30.082031 14.519531 30.019531 14.140625 29.765625 C 14.339844 30.558594 15.25 31.226562 16.164062 31.339844 C 17.105469 31.457031 17.984375 31.292969 18.789062 30.777344 C 19.402344 30.386719 19.636719 29.679688 19.367188 28.714844 C 19.207031 28.144531 19.074219 27.546875 18.671875 27.0625 C 18.558594 26.925781 18.4375 26.742188 18.566406 26.550781 C 18.679688 26.386719 18.867188 26.449219 19.03125 26.457031 C 19.09375 26.460938 19.160156 26.449219 19.214844 26.472656 C 19.96875 26.789062 20.675781 26.910156 21.335938 26.234375 C 21.511719 26.054688 21.777344 26.175781 21.882812 26.441406 C 21.9375 26.574219 21.988281 26.714844 22.011719 26.855469 C 22.109375 27.441406 22.128906 27.996094 22.90625 28.210938 C 23.4375 28.359375 23.542969 29.027344 23.757812 29.632812 C 24.382812 29.003906 24.757812 29.445312 25.183594 29.851562 C 25.625 30.269531 26.152344 30.574219 26.796875 30.582031 C 26.941406 30.582031 27.09375 30.570312 27.210938 30.773438 C 27.058594 31.277344 26.683594 31.59375 26.1875 31.800781 C 25.445312 32.109375 24.992188 33.648438 25.460938 34.28125 C 25.675781 34.574219 25.96875 34.519531 26.25 34.394531 C 26.632812 34.230469 26.867188 33.960938 26.75 33.515625 C 26.675781 33.234375 26.570312 32.960938 26.496094 32.679688 C 26.457031 32.515625 26.46875 32.339844 26.628906 32.230469 C 26.777344 32.132812 26.902344 32.234375 27.03125 32.300781 C 27.882812 32.738281 28.363281 33.460938 28.394531 34.386719 C 28.429688 35.359375 27.863281 36.011719 27.003906 36.425781 C 26.207031 36.808594 26.21875 36.8125 26.605469 37.617188 C 26.789062 37.996094 27.039062 38.324219 27.316406 38.640625 C 27.472656 38.824219 27.6875 38.984375 27.660156 39.351562 C 27.167969 39.480469 26.664062 39.433594 26.179688 39.257812 C 25.375 38.964844 25.378906 38.953125 25.105469 39.730469 C 25.070312 39.828125 25.050781 39.933594 25.011719 40.078125 C 24.828125 40.125 24.652344 40.125 24.433594 40.078125 C 24.589844 39.550781 24.761719 39.074219 24.722656 38.53125 C 24.6875 38.070312 24.9375 37.992188 25.316406 38.191406 C 25.675781 38.382812 26.027344 38.59375 26.523438 38.675781 C 26.046875 38.125 25.945312 37.492188 25.679688 36.933594 C 25.515625 36.589844 25.640625 36.332031 26.027344 36.21875 C 26.449219 36.101562 26.859375 35.949219 27.207031 35.667969 C 27.898438 35.101562 27.992188 34.363281 27.457031 33.699219 C 27.160156 34.742188 26.324219 35.253906 25.332031 34.988281 C 25.128906 34.9375 24.921875 34.878906 24.855469 34.640625 C 24.714844 34.144531 24.535156 33.671875 24.714844 33.125 C 24.980469 32.304688 25.0625 31.390625 26.183594 31.132812 C 25.53125 30.890625 24.992188 30.605469 24.550781 30.15625 C 24.460938 30.0625 24.3125 30.0625 24.203125 30.148438 C 23.71875 30.558594 23.140625 30.820312 22.558594 31.175781 C 22.890625 31.417969 23.304688 31.355469 23.492188 31.738281 C 23.75 32.269531 23.964844 32.816406 24 33.398438 C 24.035156 34.03125 23.796875 34.597656 23.230469 34.941406 C 22.773438 35.222656 22.3125 35.089844 21.871094 34.84375 C 21.402344 34.582031 21.199219 34.152344 21.15625 33.589844 C 20.640625 34.238281 20.640625 34.886719 21.117188 35.433594 C 21.457031 35.828125 21.898438 36.070312 22.386719 36.191406 C 22.894531 36.320312 22.941406 36.589844 22.78125 37.023438 C 22.578125 37.585938 22.226562 38.074219 21.890625 38.757812 C 22.363281 38.554688 22.703125 38.425781 23.027344 38.257812 C 23.484375 38.019531 23.707031 38.183594 23.730469 38.65625 C 23.757812 39.160156 23.875 39.640625 24 40.125 C 23.785156 40.125 23.570312 40.125 23.304688 40.125 C 23.222656 38.617188 22.898438 38.917969 21.964844 39.355469 C 21.433594 39.605469 21.199219 39.566406 20.675781 39.277344 C 21.160156 38.457031 22 37.835938 22.128906 36.78125 C 21.855469 36.644531 21.578125 36.511719 21.308594 36.367188 C 20.53125 35.941406 20.09375 35.300781 20.148438 34.394531 C 20.214844 33.324219 20.832031 32.636719 21.765625 32.210938 C 22.113281 32.054688 22.234375 32.269531 22.15625 32.589844 C 22.082031 32.914062 21.96875 33.226562 21.882812 33.550781 C 21.796875 33.859375 21.855469 34.125 22.136719 34.320312 C 22.394531 34.503906 22.679688 34.546875 22.960938 34.410156 C 23.253906 34.265625 23.375 33.996094 23.332031 33.679688 C 23.28125 33.269531 23.210938 32.859375 23.140625 32.449219 C 23.089844 32.128906 22.894531 31.953125 22.585938 31.84375 C 22.035156 31.644531 21.6875 31.230469 21.359375 30.636719 C 22.15625 30.507812 22.953125 30.574219 23.511719 29.871094 C 22.878906 29.625 22.316406 29.570312 21.746094 29.964844 C 21.167969 30.363281 20.746094 30.910156 20.296875 31.425781 C 19.621094 32.203125 18.898438 32.90625 17.785156 33.234375 C 18.507812 34.1875 18.820312 35.292969 19.601562 36.128906 C 19.957031 36.507812 20.398438 36.714844 20.859375 36.914062 C 21.304688 37.113281 21.328125 37.34375 20.925781 37.617188 C 20.507812 37.90625 20.027344 38.070312 19.523438 38.101562 C 19.074219 38.128906 18.75 38.324219 18.445312 38.636719 C 17.355469 39.753906 16.113281 39.472656 15.054688 38.953125 C 14.660156 38.757812 14.710938 38.449219 15.136719 38.226562 C 15.601562 37.984375 16.171875 37.914062 16.542969 37.375 C 15.988281 37.21875 15.464844 37.109375 15.003906 36.835938 C 14.792969 36.710938 14.5 36.601562 14.546875 36.308594 C 14.59375 36 14.902344 36 15.152344 35.984375 C 15.472656 35.960938 15.769531 35.871094 16.019531 35.671875 C 16.503906 35.292969 16.570312 34.792969 16.203125 34.234375 C 15.554688 33.25 14.621094 32.53125 13.746094 31.78125 C 11.710938 30.039062 10.757812 27.949219 11.34375 25.265625 C 11.355469 25.207031 11.335938 25.144531 11.328125 25.03125 C 10.867188 25.308594 10.832031 25.757812 10.695312 26.171875 C 10.550781 26.628906 10.527344 27.066406 10.671875 27.515625 C 10.8125 27.945312 10.953125 28.375 11.101562 28.835938 C 10.472656 29.097656 9.953125 28.765625 9.363281 28.59375 C 9.085938 29.203125 8.753906 29.753906 8.015625 29.84375 C 7.8125 29.871094 7.585938 29.945312 7.429688 29.761719 C 7.28125 29.582031 7.441406 29.410156 7.515625 29.242188 C 7.558594 29.148438 7.605469 29.054688 7.640625 28.957031 C 7.941406 28.199219 7.917969 28.179688 7.140625 27.988281 C 6.492188 27.824219 5.882812 27.585938 5.523438 26.835938 C 6.367188 26.632812 7.214844 26.578125 7.9375 26 C 7.328125 25.519531 6.988281 24.953125 6.941406 24.1875 C 6.917969 23.753906 6.488281 23.878906 6.242188 23.96875 C 5.617188 24.195312 4.980469 24.207031 4.335938 24.199219 C 4.167969 24.199219 4.003906 24.183594 3.839844 24.160156 C 3.667969 24.132812 3.515625 24.050781 3.472656 23.867188 C 3.425781 23.65625 3.601562 23.582031 3.738281 23.492188 C 3.941406 23.363281 4.210938 23.3125 4.28125 23.019531 C 4.070312 22.738281 3.757812 22.800781 3.480469 22.789062 C 2.558594 22.742188 1.9375 22.25 1.484375 21.488281 C 1.363281 21.285156 1.351562 21.109375 1.488281 20.910156 C 2.003906 20.15625 2.648438 19.609375 3.625 19.597656 C 3.890625 19.59375 4.164062 19.609375 4.375 19.390625 C 4.375 19.152344 4.167969 19.15625 4.035156 19.078125 C 3.855469 18.972656 3.621094 18.890625 3.640625 18.648438 C 3.660156 18.351562 3.949219 18.339844 4.160156 18.292969 C 4.886719 18.125 5.621094 18.15625 6.320312 18.375 C 6.902344 18.558594 7.175781 18.410156 7.273438 17.8125 C 7.367188 17.25 7.808594 16.90625 8.226562 16.535156 C 7.644531 15.78125 6.679688 16.03125 5.984375 15.578125 C 6.367188 14.792969 7.078125 14.59375 7.792969 14.5 C 8.398438 14.425781 8.417969 14.164062 8.226562 13.710938 C 8.105469 13.429688 7.929688 13.160156 7.960938 12.835938 C 8.660156 12.578125 9.277344 12.796875 9.601562 13.507812 C 9.800781 13.945312 9.992188 13.980469 10.40625 13.808594 C 11.175781 13.488281 11.464844 13.601562 11.59375 14.226562 C 10.71875 14.957031 10.71875 16.992188 11.695312 17.585938 C 11.523438 17.175781 11.582031 16.792969 11.574219 16.40625 C 11.5625 15.683594 11.769531 14.96875 11.621094 14.246094 M 9.207031 19.355469 C 8.8125 18.820312 8.585938 18.167969 8.113281 17.632812 C 7.71875 18.082031 7.75 18.449219 8.070312 18.808594 C 8.292969 19.058594 8.539062 19.28125 8.757812 19.53125 C 8.988281 19.796875 9.1875 20.082031 9.011719 20.699219 C 8.527344 19.804688 7.773438 19.644531 7.03125 19.371094 C 6.429688 19.152344 5.820312 18.996094 5.058594 18.738281 C 5.3125 19.023438 5.390625 19.222656 5.46875 19.429688 C 5.742188 20.179688 5.703125 20.277344 4.933594 20.265625 C 4.492188 20.261719 4.289062 20.457031 4.175781 20.84375 C 4.125 21.011719 4.199219 21.230469 3.988281 21.347656 C 3.765625 21.210938 3.769531 20.957031 3.691406 20.753906 C 3.582031 20.472656 3.519531 20.183594 3.09375 20.335938 C 2.609375 20.507812 2.125 21.039062 2.210938 21.34375 C 2.316406 21.730469 3.117188 22.328125 3.496094 22.171875 C 4.039062 21.945312 4.554688 22.222656 5.085938 22.117188 C 5.5 22.039062 5.722656 22.316406 5.53125 22.746094 C 5.382812 23.070312 5.28125 23.441406 4.910156 23.648438 C 5.527344 23.695312 6.109375 23.503906 6.535156 23.167969 C 7.167969 22.671875 7.792969 22.945312 8.460938 22.894531 C 8.335938 23.363281 7.824219 23.355469 7.675781 23.730469 C 7.515625 24.128906 7.507812 24.476562 7.875 24.855469 C 8.113281 24.511719 8.3125 24.203125 8.535156 23.910156 C 9.171875 23.074219 9.945312 22.496094 11.070312 22.589844 C 11.285156 22.609375 11.5 22.632812 11.578125 22.871094 C 11.648438 23.09375 11.480469 23.222656 11.332031 23.332031 C 10.925781 23.636719 10.644531 24.046875 10.328125 24.4375 C 9.714844 25.195312 9.089844 25.945312 8.28125 26.527344 C 7.824219 26.855469 7.253906 26.925781 6.777344 27.238281 C 6.996094 27.433594 7.21875 27.429688 7.449219 27.433594 C 8.394531 27.460938 8.589844 27.71875 8.402344 28.636719 C 8.382812 28.734375 8.253906 28.847656 8.441406 28.976562 C 8.613281 28.554688 8.699219 28.089844 8.960938 27.769531 C 9.433594 27.195312 9.648438 27.953125 10.054688 28.132812 C 9.824219 27.300781 9.835938 26.542969 10.097656 25.796875 C 10.394531 24.9375 10.816406 24.160156 11.644531 23.6875 C 11.808594 23.589844 11.980469 23.488281 12.167969 23.605469 C 12.367188 23.734375 12.304688 23.9375 12.269531 24.117188 C 12.175781 24.609375 12.046875 25.09375 11.972656 25.585938 C 11.683594 27.566406 12.0625 29.3125 13.574219 30.777344 C 14.457031 31.632812 15.421875 32.390625 16.265625 33.285156 C 17.007812 34.0625 17.242188 34.886719 16.859375 35.652344 C 16.652344 36.066406 16.230469 36.226562 15.824219 36.507812 C 16.238281 36.667969 16.539062 36.574219 16.835938 36.410156 C 17.039062 36.300781 17.261719 36.171875 17.46875 36.363281 C 17.679688 36.5625 17.519531 36.792969 17.453125 37.003906 C 17.292969 37.492188 17.003906 37.882812 16.570312 38.179688 C 16.375 38.308594 16.125 38.390625 15.992188 38.65625 C 16.632812 38.9375 17.253906 38.976562 17.710938 38.492188 C 18.332031 37.835938 18.988281 37.363281 19.925781 37.421875 C 19.949219 37.421875 19.972656 37.359375 20.042969 37.257812 C 19.179688 36.742188 18.679688 35.910156 18.140625 35.09375 C 17.710938 34.441406 17.496094 33.652344 16.878906 33.117188 C 16.773438 33.023438 16.710938 32.871094 16.792969 32.71875 C 16.890625 32.539062 17.066406 32.550781 17.234375 32.574219 C 17.9375 32.675781 18.5 32.371094 18.984375 31.917969 C 20.164062 30.816406 21.015625 29.308594 22.796875 29.019531 C 22.699219 28.65625 22.460938 28.648438 22.234375 28.628906 C 21.730469 28.582031 21.394531 28.425781 21.535156 27.804688 C 21.585938 27.566406 21.574219 27.261719 21.332031 27.074219 C 21.09375 27.113281 21.003906 27.292969 20.949219 27.464844 C 20.785156 27.984375 20.535156 27.875 20.226562 27.59375 C 20.054688 27.433594 19.875 27.261719 19.546875 27.269531 C 19.722656 27.765625 19.910156 28.203125 20.035156 28.660156 C 20.386719 29.953125 19.933594 30.855469 19.089844 31.335938 C 18.050781 31.925781 16.878906 32.214844 15.613281 31.816406 C 14.199219 31.375 12.996094 30.078125 12.84375 28.613281 C 12.730469 27.527344 12.808594 26.445312 13.128906 25.40625 C 13.390625 24.566406 13.90625 23.847656 14.5625 23.246094 C 14.707031 23.113281 14.894531 23.03125 15.078125 23.160156 C 15.285156 23.304688 15.167969 23.480469 15.09375 23.65625 C 14.917969 24.054688 14.695312 24.449219 14.605469 24.867188 C 14.492188 25.425781 14.242188 26.011719 14.601562 26.640625 C 14.695312 26.507812 14.746094 26.421875 14.8125 26.34375 C 15.289062 25.769531 15.472656 25.792969 15.765625 26.464844 C 15.792969 26.519531 15.824219 26.617188 15.855469 26.617188 C 16.46875 26.644531 16.816406 27.175781 17.324219 27.410156 C 17.230469 27.257812 17.089844 27.171875 16.984375 27.050781 C 16.363281 26.34375 15.558594 25.738281 15.585938 24.652344 C 15.59375 24.390625 15.523438 24.0625 15.875 23.972656 C 16.222656 23.882812 16.316406 24.179688 16.441406 24.425781 C 16.5625 24.664062 16.707031 24.898438 16.871094 25.109375 C 17.023438 25.308594 17.226562 25.429688 17.558594 25.253906 C 17.339844 25.097656 17.164062 24.992188 17.015625 24.855469 C 16.632812 24.507812 16.335938 24.074219 16.394531 23.554688 C 16.488281 22.746094 17.75 21.898438 18.574219 22.019531 C 18.996094 22.078125 19.164062 22.273438 19.011719 22.703125 C 18.925781 22.945312 18.796875 23.203125 18.984375 23.484375 C 19.566406 23.273438 20.113281 22.863281 20.765625 23.039062 C 21.109375 23.132812 21.597656 23.25 21.570312 23.695312 C 21.539062 24.164062 21.050781 23.972656 20.75 24.007812 C 20.050781 24.082031 19.601562 24.441406 19.519531 25.105469 C 20.542969 24.746094 21.542969 24.710938 22.492188 25.242188 C 23.390625 25.75 23.984375 26.566406 24.546875 27.550781 C 25.734375 25.464844 27.242188 24.273438 29.71875 25.199219 C 29.398438 24.328125 28.832031 24.035156 28.078125 24.023438 C 27.871094 24.019531 27.632812 24.019531 27.585938 23.75 C 27.542969 23.492188 27.753906 23.402344 27.933594 23.292969 C 28.351562 23.035156 28.78125 23.003906 29.25 23.152344 C 29.605469 23.265625 29.914062 23.464844 30.226562 23.671875 C 30.40625 23.417969 30.332031 23.191406 30.285156 22.976562 C 30.105469 22.167969 30.289062 21.988281 31.117188 22.171875 C 31.429688 22.238281 31.699219 22.386719 31.957031 22.570312 C 32.925781 23.265625 32.910156 24.359375 31.925781 25.039062 C 31.808594 25.121094 31.585938 25.144531 31.695312 25.449219 C 32.21875 25.242188 32.507812 24.839844 32.738281 24.371094 C 32.828125 24.183594 32.925781 23.96875 33.191406 24.035156 C 33.4375 24.09375 33.476562 24.316406 33.492188 24.53125 C 33.519531 25.03125 33.304688 25.453125 33.0625 25.875 C 32.648438 26.589844 31.972656 27.050781 31.257812 27.695312 C 32.117188 27.503906 32.421875 26.636719 33.164062 26.691406 C 33.335938 26.421875 33.082031 25.886719 33.597656 25.988281 C 33.871094 26.042969 34.089844 26.382812 34.394531 26.648438 C 34.539062 26.144531 34.519531 25.691406 34.445312 25.246094 C 34.375 24.820312 34.332031 24.382812 34.109375 23.988281 C 34 23.796875 33.871094 23.519531 34.097656 23.359375 C 34.382812 23.160156 34.527344 23.480469 34.699219 23.640625 C 34.804688 23.738281 34.886719 23.859375 34.976562 23.976562 C 36.011719 25.347656 36.1875 26.898438 35.917969 28.542969 C 35.445312 31.441406 32.175781 32.898438 29.796875 31.3125 C 28.96875 30.761719 28.671875 30.023438 28.835938 29.0625 C 28.941406 28.445312 29.246094 27.894531 29.421875 27.265625 C 29.132812 27.257812 29 27.457031 28.835938 27.597656 C 28.511719 27.878906 28.222656 28.019531 28.085938 27.429688 C 28.042969 27.234375 27.957031 27.03125 27.683594 27.046875 C 27.527344 27.316406 27.507812 27.613281 27.511719 27.898438 C 27.519531 28.308594 27.359375 28.527344 26.929688 28.527344 C 26.609375 28.527344 26.316406 28.605469 26.195312 28.925781 C 26.238281 29.085938 26.339844 29.128906 26.441406 29.144531 C 27.472656 29.296875 28.144531 29.980469 28.734375 30.75 C 29.472656 31.710938 30.210938 32.632812 31.59375 32.585938 C 31.765625 32.578125 31.925781 32.660156 31.980469 32.84375 C 32.039062 33.039062 31.910156 33.160156 31.769531 33.257812 C 31.359375 33.539062 31.128906 33.953125 30.875 34.363281 C 30.21875 35.414062 29.726562 36.597656 28.558594 37.234375 C 28.539062 37.246094 28.554688 37.308594 28.554688 37.339844 C 28.648438 37.457031 28.78125 37.488281 28.898438 37.472656 C 29.542969 37.398438 29.992188 37.621094 30.453125 38.117188 C 31.148438 38.859375 31.839844 38.921875 32.558594 38.480469 C 31.828125 38.128906 31.308594 37.621094 31.101562 36.851562 C 31.054688 36.675781 30.976562 36.480469 31.15625 36.328125 C 31.328125 36.1875 31.507812 36.234375 31.683594 36.320312 C 31.976562 36.457031 32.269531 36.585938 32.628906 36.402344 C 31.417969 35.558594 31.304688 34.828125 32.136719 33.65625 C 32.453125 33.210938 32.816406 32.816406 33.242188 32.476562 C 33.976562 31.890625 34.652344 31.246094 35.332031 30.601562 C 36.367188 29.621094 36.921875 28.449219 36.984375 27.015625 C 37.023438 26.117188 36.988281 25.230469 36.753906 24.355469 C 36.707031 24.179688 36.660156 23.972656 36.847656 23.839844 C 37.011719 23.722656 37.171875 23.792969 37.300781 23.910156 C 38.039062 24.574219 38.675781 25.289062 38.8125 26.34375 C 38.898438 27 38.785156 27.625 38.59375 28.367188 C 38.808594 28.199219 38.933594 28.125 39.03125 28.023438 C 39.203125 27.84375 39.34375 27.601562 39.648438 27.71875 C 39.921875 27.820312 39.859375 28.089844 39.914062 28.304688 C 39.988281 28.613281 40.007812 28.953125 40.335938 29.175781 C 40.417969 28.933594 40.300781 28.765625 40.269531 28.589844 C 40.136719 27.902344 40.351562 27.628906 41.046875 27.597656 C 41.332031 27.582031 41.625 27.597656 41.855469 27.382812 C 41.835938 27.242188 41.734375 27.203125 41.636719 27.175781 C 40.59375 26.855469 39.84375 26.164062 39.203125 25.308594 C 38.730469 24.679688 38.292969 24.011719 37.671875 23.503906 C 37.519531 23.382812 37.402344 23.222656 37.476562 23.015625 C 37.554688 22.792969 37.777344 22.816406 37.953125 22.800781 C 39.007812 22.710938 39.730469 23.238281 40.304688 24.058594 C 40.550781 24.40625 40.644531 24.847656 40.992188 25.191406 C 41.378906 24.746094 41.359375 24.25 41.359375 23.753906 C 41.359375 23.535156 41.277344 23.265625 41.539062 23.140625 C 41.78125 23.023438 41.96875 23.21875 42.164062 23.332031 C 42.433594 23.488281 42.691406 23.667969 42.976562 23.789062 C 43.265625 23.914062 43.578125 24.046875 43.921875 23.878906 C 43.820312 23.519531 43.511719 23.359375 43.367188 23.085938 C 43.265625 22.902344 43.132812 22.714844 43.246094 22.503906 C 43.371094 22.273438 43.609375 22.34375 43.808594 22.367188 C 44.035156 22.394531 44.261719 22.445312 44.480469 22.503906 C 45.300781 22.726562 45.945312 22.441406 46.496094 21.839844 C 46.652344 21.671875 46.78125 21.519531 46.585938 21.308594 C 46.171875 20.855469 45.738281 20.425781 45.050781 20.5 C 44.660156 20.542969 44.273438 20.625 43.882812 20.691406 C 43.679688 20.722656 43.460938 20.808594 43.316406 20.582031 C 43.175781 20.363281 43.234375 20.132812 43.371094 19.9375 C 43.546875 19.691406 43.75 19.460938 43.964844 19.191406 C 43.203125 19.039062 42.652344 19.363281 42.113281 19.730469 C 41.945312 19.847656 41.785156 20.023438 41.554688 19.894531 C 41.292969 19.75 41.382812 19.503906 41.398438 19.28125 C 41.4375 18.789062 41.429688 18.304688 41.066406 17.820312 C 40.832031 18.214844 40.640625 18.558594 40.425781 18.882812 C 39.851562 19.742188 39.066406 20.210938 38.007812 20.160156 C 37.796875 20.148438 37.566406 20.15625 37.464844 19.933594 C 37.34375 19.675781 37.585938 19.574219 37.726562 19.433594 C 37.996094 19.171875 38.28125 18.925781 38.519531 18.636719 C 39.511719 17.421875 40.363281 16.046875 42.148438 15.742188 C 41.792969 15.402344 41.476562 15.40625 41.136719 15.460938 C 40.683594 15.53125 40.464844 15.3125 40.464844 14.867188 C 40.46875 14.578125 40.496094 14.285156 40.515625 13.925781 C 40.230469 14.128906 40.183594 14.351562 40.125 14.570312 C 39.882812 15.449219 39.882812 15.449219 39.109375 14.898438 C 39.042969 14.855469 38.96875 14.8125 38.847656 14.9375 C 39.359375 16.53125 38.78125 17.828125 37.5625 18.910156 C 37.390625 19.058594 37.242188 19.277344 36.976562 19.164062 C 36.675781 19.035156 36.8125 18.769531 36.84375 18.558594 C 36.933594 17.878906 37.175781 17.230469 37.21875 16.539062 C 37.339844 14.492188 36.425781 12.9375 34.949219 11.625 C 34.203125 10.964844 33.390625 10.363281 32.777344 9.566406 C 31.875 8.398438 31.613281 7.574219 33.171875 6.691406 C 33.183594 6.683594 33.183594 6.65625 33.199219 6.609375 C 32.839844 6.425781 32.53125 6.558594 32.214844 6.730469 C 32.027344 6.835938 31.816406 6.898438 31.632812 6.734375 C 31.445312 6.566406 31.613281 6.398438 31.660156 6.222656 C 31.878906 5.410156 32.484375 4.96875 33.25 4.644531 C 32.425781 4.195312 31.742188 4.320312 31.078125 5.015625 C 30.746094 5.367188 30.445312 5.730469 29.863281 5.554688 C 29.621094 5.480469 29.386719 5.601562 29.238281 5.871094 C 29.984375 6.378906 30.46875 7.070312 30.90625 7.8125 C 31.292969 8.476562 31.59375 9.195312 32.140625 9.757812 C 32.269531 9.890625 32.433594 10.027344 32.332031 10.242188 C 32.230469 10.457031 32.015625 10.417969 31.835938 10.402344 C 31.183594 10.339844 30.65625 10.601562 30.203125 11.039062 C 29.800781 11.429688 29.402344 11.828125 29.023438 12.242188 C 28.335938 13.011719 27.585938 13.667969 26.4375 13.757812 C 26.640625 14.257812 26.972656 14.332031 27.335938 14.3125 C 27.699219 14.292969 27.804688 14.449219 27.789062 14.796875 C 27.769531 15.128906 27.660156 15.5 27.9375 15.78125 C 28.207031 15.769531 28.277344 15.578125 28.347656 15.414062 C 28.550781 14.929688 28.792969 14.949219 29.117188 15.308594 C 29.273438 15.480469 29.460938 15.640625 29.789062 15.640625 C 29.519531 15.09375 29.339844 14.585938 29.1875 14.066406 C 28.941406 13.238281 29.238281 12.296875 29.929688 11.777344 C 32.140625 10.109375 35.320312 11.230469 36 13.914062 C 36.214844 14.75 36.304688 15.574219 36.160156 16.4375 C 35.964844 17.605469 35.511719 18.621094 34.65625 19.445312 C 34.503906 19.589844 34.34375 19.78125 34.121094 19.625 C 33.898438 19.46875 33.996094 19.246094 34.097656 19.0625 C 34.367188 18.5625 34.570312 18.039062 34.667969 17.484375 C 34.746094 17.066406 34.773438 16.648438 34.5 16.242188 C 34.1875 16.511719 34.066406 17 33.640625 16.960938 C 33.277344 16.925781 33.480469 16.503906 33.351562 16.257812 C 32.601562 16.265625 32.363281 15.359375 31.558594 15.257812 C 31.859375 15.527344 32.109375 15.738281 32.339844 15.96875 C 32.910156 16.527344 33.425781 17.125 33.589844 17.941406 C 33.65625 18.261719 33.65625 18.628906 33.339844 18.773438 C 32.949219 18.953125 32.898438 18.523438 32.742188 18.304688 C 32.507812 17.972656 32.363281 17.511719 31.753906 17.554688 C 31.832031 17.648438 31.863281 17.707031 31.90625 17.734375 C 32.519531 18.125 32.925781 18.640625 32.726562 19.398438 C 32.554688 20.046875 31.535156 20.734375 30.835938 20.757812 C 30.269531 20.777344 30.089844 20.507812 30.285156 19.949219 C 30.363281 19.714844 30.429688 19.484375 30.253906 19.230469 C 29.722656 19.550781 29.207031 19.828125 28.59375 19.695312 C 28.230469 19.617188 27.734375 19.582031 27.734375 19.128906 C 27.738281 18.613281 28.257812 18.792969 28.574219 18.75 C 29.246094 18.664062 29.675781 18.292969 29.714844 17.699219 C 28.722656 18.027344 27.757812 18.066406 26.816406 17.523438 C 25.921875 17.007812 25.414062 16.144531 24.804688 15.273438 C 24.175781 16.175781 23.589844 17 22.65625 17.503906 C 21.65625 18.042969 20.664062 17.898438 19.628906 17.515625 C 19.652344 17.675781 19.648438 17.742188 19.671875 17.796875 C 19.953125 18.5 20.535156 18.703125 21.226562 18.722656 C 21.417969 18.730469 21.628906 18.742188 21.691406 18.957031 C 21.773438 19.226562 21.535156 19.308594 21.359375 19.410156 C 20.878906 19.695312 20.382812 19.726562 19.863281 19.507812 C 19.621094 19.40625 19.394531 19.226562 19.082031 19.28125 C 18.972656 19.523438 19.046875 19.765625 19.097656 20.007812 C 19.179688 20.417969 18.964844 20.578125 18.597656 20.628906 C 17.929688 20.714844 17.023438 20.140625 16.703125 19.425781 C 16.441406 18.832031 16.628906 18.242188 17.238281 17.714844 C 17.355469 17.617188 17.539062 17.578125 17.589844 17.339844 C 16.964844 17.410156 16.796875 17.910156 16.554688 18.328125 C 16.433594 18.535156 16.3125 18.742188 16.03125 18.660156 C 15.757812 18.578125 15.734375 18.328125 15.753906 18.09375 C 15.796875 17.59375 15.90625 17.105469 16.265625 16.71875 C 16.675781 16.273438 17.082031 15.828125 17.613281 15.25 C 16.4375 15.84375 16.140625 16.121094 15.90625 16.78125 C 15.378906 16.859375 15.28125 16.246094 14.871094 16.089844 C 14.636719 16.566406 14.609375 17.03125 14.742188 17.503906 C 14.878906 17.980469 15.046875 18.453125 15.207031 18.925781 C 15.269531 19.109375 15.332031 19.300781 15.136719 19.429688 C 14.957031 19.554688 14.761719 19.488281 14.617188 19.363281 C 14.476562 19.246094 14.367188 19.085938 14.265625 18.933594 C 13.246094 17.417969 13.03125 15.792969 13.363281 13.988281 C 13.769531 11.769531 16.226562 10.332031 18.265625 10.867188 C 20.113281 11.351562 20.789062 12.441406 20.386719 14.304688 C 20.300781 14.6875 20.007812 14.976562 19.949219 15.5 C 20.644531 14.632812 21.140625 14.917969 21.488281 15.695312 C 21.792969 15.472656 21.742188 15.21875 21.738281 15.007812 C 21.726562 14.488281 21.878906 14.175781 22.472656 14.171875 C 22.703125 14.167969 23.039062 14.171875 23.125 13.722656 C 22.402344 13.621094 21.804688 13.296875 21.300781 12.769531 C 20.910156 12.359375 20.535156 11.949219 20.195312 11.5 C 19.605469 10.71875 18.835938 10.226562 17.832031 10.167969 C 17.664062 10.160156 17.496094 10.148438 17.351562 9.851562 C 18.640625 8.554688 19.128906 6.570312 20.917969 5.601562 C 20.6875 5.367188 20.484375 5.382812 20.308594 5.398438 C 19.695312 5.457031 19.253906 5.292969 18.917969 4.707031 C 18.570312 4.105469 17.632812 3.972656 16.859375 4.332031 C 17.089844 4.484375 17.300781 4.609375 17.492188 4.761719 C 17.871094 5.058594 18.234375 5.378906 18.28125 5.90625 C 18.304688 6.125 18.449219 6.371094 18.214844 6.546875 C 17.972656 6.71875 17.734375 6.617188 17.519531 6.464844 C 17.28125 6.292969 17.046875 6.160156 16.683594 6.40625 C 17.160156 6.679688 17.625 6.882812 17.761719 7.390625 C 17.964844 8.164062 17.601562 8.765625 17.097656 9.292969 C 16.308594 10.128906 15.382812 10.804688 14.507812 11.542969 C 13.140625 12.6875 12.292969 14.113281 12.171875 15.925781 C 12.117188 16.746094 12.351562 17.53125 12.421875 18.332031 C 12.4375 18.53125 12.558594 18.765625 12.296875 18.886719 C 12.078125 18.984375 11.894531 18.871094 11.734375 18.722656 C 10.945312 17.964844 10.277344 17.175781 10.289062 15.964844 C 10.292969 15.460938 10.449219 15.007812 10.519531 14.535156 C 10.300781 14.464844 10.199219 14.589844 10.097656 14.683594 C 9.925781 14.835938 9.78125 15.03125 9.507812 14.921875 C 9.238281 14.816406 9.242188 14.574219 9.226562 14.347656 C 9.207031 14.070312 9.140625 13.820312 8.839844 13.515625 C 8.875 13.839844 8.902344 14 8.910156 14.164062 C 8.949219 14.914062 8.800781 15.066406 8.046875 15.046875 C 7.773438 15.042969 7.527344 15.125 7.082031 15.28125 C 8.113281 15.597656 8.84375 16.070312 9.453125 16.742188 C 10.210938 17.574219 10.746094 18.578125 11.582031 19.351562 C 11.871094 19.617188 11.65625 19.847656 11.332031 19.921875 C 10.566406 20.09375 9.898438 19.847656 9.207031 19.355469 M 35.121094 29.117188 C 35.566406 28.003906 35.578125 26.878906 35.191406 25.742188 C 35.175781 26.285156 35.03125 26.796875 34.835938 27.289062 C 34.738281 27.53125 34.710938 27.855469 34.375 27.894531 C 33.976562 27.941406 34.023438 27.53125 33.835938 27.261719 C 33.90625 27.929688 34.152344 28.449219 34.507812 28.914062 C 34.628906 29.074219 34.746094 29.40625 35.121094 29.117188 M 33.421875 15.796875 C 33.613281 15.039062 33.816406 14.285156 34.257812 13.566406 C 33.84375 13.507812 33.652344 13.6875 33.542969 13.988281 C 33.472656 14.167969 33.417969 14.363281 33.179688 14.351562 C 32.953125 14.34375 32.894531 14.144531 32.820312 13.96875 C 32.636719 13.539062 32.453125 13.105469 31.914062 12.816406 C 31.992188 14.078125 32.75 14.90625 33.421875 15.796875 M 34.058594 15.496094 C 34.074219 15.511719 34.085938 15.535156 34.101562 15.535156 C 34.117188 15.539062 34.148438 15.527344 34.152344 15.511719 C 34.25 15.292969 34.285156 14.988281 34.625 15.042969 C 34.921875 15.089844 34.945312 15.371094 35.042969 15.601562 C 35.191406 15.957031 35.089844 16.382812 35.410156 16.808594 C 35.699219 15.652344 35.738281 14.617188 35.296875 13.496094 C 34.539062 14.03125 34.320312 14.746094 34.058594 15.496094 M 14.007812 27.132812 C 13.933594 26.738281 13.859375 26.34375 13.785156 25.949219 C 13.472656 27.0625 13.371094 28.164062 13.734375 29.355469 C 14.410156 29.003906 14.664062 28.507812 14.894531 27.851562 C 14.328125 27.921875 14.140625 27.625 14.007812 27.132812 M 14.324219 15.675781 C 14.46875 15.207031 14.566406 14.699219 15.210938 14.695312 C 15.0625 14.03125 14.929688 13.824219 14.421875 13.464844 C 13.800781 14.03125 13.613281 15.921875 14.078125 17 C 14.152344 16.582031 14.222656 16.175781 14.324219 15.675781 M 33.101562 28.601562 C 33.375 28.867188 33.304688 29.542969 34.078125 29.351562 C 33.59375 28.675781 33.390625 27.949219 33.15625 27.160156 C 32.398438 28.046875 31.792969 28.878906 31.664062 30.078125 C 32.128906 29.800781 32.238281 29.410156 32.433594 29.082031 C 32.570312 28.847656 32.617188 28.492188 33.101562 28.601562 M 15.613281 27.695312 C 15.546875 28.300781 15.085938 28.734375 14.867188 29.300781 C 15.21875 29.34375 15.375 29.171875 15.488281 28.933594 C 15.582031 28.726562 15.644531 28.480469 15.9375 28.488281 C 16.246094 28.496094 16.300781 28.769531 16.421875 28.980469 C 16.613281 29.304688 16.675781 29.71875 17.109375 30.007812 C 17.097656 28.820312 16.570312 27.988281 15.882812 27.230469 C 15.652344 27.3125 15.65625 27.46875 15.613281 27.695312 M 17.371094 12.863281 C 17.082031 13.117188 16.929688 13.460938 16.78125 13.800781 C 16.699219 13.992188 16.679688 14.222656 16.414062 14.238281 C 16.128906 14.25 16.042969 14.027344 15.945312 13.816406 C 15.832031 13.566406 15.738281 13.269531 15.207031 13.351562 C 15.667969 14.039062 15.925781 14.734375 16.101562 15.523438 C 16.742188 14.796875 17.289062 14.125 17.554688 13.285156 C 17.601562 13.140625 17.796875 12.886719 17.371094 12.863281 M 31.964844 23.375 C 31.667969 23.066406 31.386719 22.746094 30.945312 22.722656 C 30.945312 23.433594 30.945312 24.101562 30.945312 24.773438 C 31.910156 24.640625 32.207031 24.253906 31.964844 23.375 M 17.351562 19.4375 C 17.605469 19.746094 17.898438 19.988281 18.367188 20.015625 C 18.367188 19.554688 18.375 19.128906 18.363281 18.703125 C 18.359375 18.46875 18.453125 18.160156 18.148438 18.058594 C 17.847656 17.960938 17.589844 18.117188 17.378906 18.339844 C 17.074219 18.660156 17.105469 19.003906 17.351562 19.4375 M 31.984375 19.546875 C 32.371094 18.675781 31.980469 18.101562 31.003906 18.148438 C 31.003906 18.777344 31.003906 19.40625 31.003906 20.066406 C 31.4375 20.121094 31.679688 19.863281 31.984375 19.546875 M 39.117188 23.570312 C 38.933594 23.503906 38.765625 23.335938 38.472656 23.488281 C 39.070312 24.21875 39.515625 25.039062 40.277344 25.609375 C 40.25 24.75 39.789062 24.144531 39.117188 23.570312 M 9.171875 17.289062 C 9.042969 17.179688 8.972656 16.972656 8.707031 17.019531 C 9.011719 18.023438 9.339844 18.964844 10.636719 19.335938 C 10.105469 18.589844 9.667969 17.96875 9.171875 17.289062 M 40.335938 17.925781 C 40.386719 17.738281 40.550781 17.574219 40.417969 17.316406 C 39.652344 17.953125 39.199219 18.828125 38.398438 19.59375 C 39.492188 19.429688 39.917969 18.742188 40.335938 17.925781 M 9.34375 24.65625 C 9.660156 24.207031 10.117188 23.863281 10.359375 23.328125 C 9.523438 23.445312 8.75 24.335938 8.511719 25.453125 C 8.875 25.285156 9.042969 24.960938 9.34375 24.65625 Z M 9.34375 24.65625 "/>
<path style=" stroke:none;fill-rule:nonzero;fill:rgb(0%,0%,0%);fill-opacity:1;" d="M 120.125 20.191406 C 120 20.261719 119.875 20.265625 119.753906 20.285156 C 118.640625 20.492188 117.949219 19.933594 117.425781 19.03125 C 117 18.292969 117.242188 17.546875 117.621094 16.980469 C 118.105469 16.265625 118.886719 15.847656 119.84375 16.074219 C 119.902344 16.085938 119.964844 16.09375 120.074219 16.113281 C 120.125 17.460938 120.125 18.796875 120.125 20.191406 M 119.617188 19.273438 C 119.25 18.847656 119.046875 19.101562 118.824219 19.453125 C 119.105469 19.710938 119.390625 19.773438 119.707031 19.621094 C 119.945312 19.507812 119.804688 19.410156 119.617188 19.273438 M 118.335938 18.304688 C 118.332031 18.144531 118.390625 17.945312 118.066406 17.863281 C 118.085938 18.1875 117.933594 18.472656 118.175781 18.726562 C 118.359375 18.640625 118.304688 18.5 118.335938 18.304688 Z M 118.335938 18.304688 "/>
<path style=" stroke:none;fill-rule:nonzero;fill:rgb(0%,0%,0%);fill-opacity:1;" d="M 24.714844 1.847656 C 25.035156 1.386719 25.269531 1.453125 25.421875 1.910156 C 25.660156 2.617188 25.878906 3.328125 26.117188 4.085938 C 26.859375 3.9375 27.550781 3.472656 28.308594 3.765625 C 28.40625 3.96875 28.308594 4.082031 28.214844 4.195312 C 27.96875 4.503906 27.710938 4.804688 27.476562 5.121094 C 26.816406 5.996094 26.84375 6.125 27.765625 6.664062 C 28.503906 7.09375 28.996094 7.695312 28.90625 8.589844 C 28.820312 9.4375 28.410156 10.121094 27.617188 10.523438 C 27.453125 10.605469 27.277344 10.71875 27.101562 10.554688 C 26.953125 10.417969 27.023438 10.246094 27.070312 10.085938 C 27.15625 9.789062 27.257812 9.492188 27.246094 9.171875 C 27.226562 8.707031 26.917969 8.503906 26.519531 8.460938 C 26.117188 8.414062 25.925781 8.660156 25.847656 9.042969 C 25.667969 9.933594 26 10.660156 26.769531 11.125 C 27.175781 11.375 27.515625 11.707031 27.679688 12.210938 C 27.59375 12.261719 27.515625 12.34375 27.457031 12.335938 C 26.507812 12.175781 25.847656 12.726562 25.195312 13.269531 C 24.96875 13.460938 24.757812 13.652344 24.496094 13.398438 C 23.785156 12.703125 23.027344 12.117188 21.824219 12.238281 C 22.128906 11.570312 22.515625 11.210938 23.042969 10.988281 C 23.722656 10.703125 24.152344 9.28125 23.75 8.675781 C 23.570312 8.40625 23.324219 8.347656 23.039062 8.441406 C 22.726562 8.546875 22.5 8.71875 22.507812 9.109375 C 22.511719 9.628906 22.714844 10.113281 22.777344 10.617188 C 22.429688 10.84375 22.242188 10.5625 22.039062 10.425781 C 21.273438 9.910156 20.714844 9.191406 20.78125 8.257812 C 20.84375 7.332031 21.5 6.71875 22.351562 6.402344 C 22.910156 6.195312 22.90625 5.894531 22.695312 5.441406 C 22.40625 4.816406 21.882812 4.347656 21.511719 3.691406 C 22.398438 3.394531 23.089844 3.898438 23.929688 4.078125 C 23.996094 3.269531 24.253906 2.542969 24.714844 1.847656 M 26.320312 6.136719 C 26.46875 5.535156 26.859375 5.042969 27.167969 4.460938 C 26.773438 4.445312 26.523438 4.605469 26.269531 4.726562 C 25.59375 5.046875 25.488281 4.980469 25.449219 4.257812 C 25.421875 3.757812 25.417969 3.230469 24.980469 2.816406 C 24.609375 3.285156 24.558594 3.796875 24.507812 4.3125 C 24.453125 4.941406 24.351562 4.996094 23.773438 4.710938 C 23.460938 4.554688 23.167969 4.367188 22.773438 4.34375 C 22.878906 4.554688 22.96875 4.738281 23.054688 4.917969 C 23.15625 5.125 23.253906 5.332031 23.351562 5.539062 C 23.789062 6.507812 23.742188 6.617188 22.746094 6.910156 C 21.484375 7.277344 21.019531 8.421875 21.796875 9.339844 C 21.816406 9.238281 21.835938 9.164062 21.84375 9.089844 C 21.898438 8.378906 22.335938 7.964844 23.148438 7.859375 C 23.800781 7.773438 24.210938 8.050781 24.460938 8.742188 C 24.804688 9.714844 24.121094 11.195312 23.175781 11.53125 C 23.09375 11.558594 23.03125 11.605469 23.039062 11.753906 C 23.664062 12.007812 24.300781 12.285156 24.828125 12.867188 C 25.1875 12.113281 25.972656 12.113281 26.527344 11.75 C 26.417969 11.464844 26.171875 11.507812 25.988281 11.445312 C 25.792969 11.382812 25.652344 11.289062 25.601562 11.085938 C 25.46875 10.519531 25.242188 9.957031 25.21875 9.382812 C 25.175781 8.144531 25.746094 7.609375 26.953125 8.011719 C 27.558594 8.210938 27.894531 8.628906 27.996094 9.296875 C 28.539062 8.449219 28.421875 7.777344 27.695312 7.230469 C 27.390625 7 27.035156 6.878906 26.683594 6.753906 C 26.4375 6.667969 26.203125 6.566406 26.320312 6.136719 Z M 26.320312 6.136719 "/>
<path style=" stroke:none;fill-rule:nonzero;fill:rgb(0%,0%,0%);fill-opacity:1;" d="M 86.746094 20.171875 C 86.753906 21.566406 86.53125 22.808594 85.621094 23.886719 C 84.335938 25.402344 82.257812 25.4375 80.984375 23.894531 C 79.457031 22.050781 79.457031 19.164062 80.984375 17.3125 C 82.308594 15.707031 84.753906 15.910156 85.878906 17.671875 C 86.367188 18.4375 86.582031 19.257812 86.746094 20.171875 M 82.902344 17.300781 C 82.394531 17.445312 82.007812 17.765625 81.785156 18.230469 C 81.042969 19.789062 80.898438 21.367188 81.734375 22.949219 C 82.089844 23.621094 82.589844 24.0625 83.414062 24.003906 C 84.203125 23.949219 84.636719 23.433594 84.9375 22.792969 C 85.515625 21.566406 85.511719 20.277344 85.160156 19.015625 C 84.789062 17.6875 84.167969 17.253906 82.902344 17.300781 Z M 82.902344 17.300781 "/>
<path style=" stroke:none;fill-rule:nonzero;fill:rgb(0%,0%,0%);fill-opacity:1;" d="M 90.835938 17.796875 C 92.234375 17.753906 93.019531 18.445312 93.222656 20.003906 C 93.445312 21.683594 93.300781 23.285156 91.929688 24.539062 C 91.351562 25.070312 90.71875 25.203125 89.984375 25.050781 C 89.164062 24.878906 89.152344 24.886719 89.152344 25.746094 C 89.152344 26.304688 89.152344 26.867188 89.160156 27.429688 C 89.167969 27.777344 89.109375 28.046875 88.660156 28.039062 C 88.230469 28.035156 88.082031 27.828125 88.082031 27.417969 C 88.09375 25.316406 88.097656 23.214844 88.097656 21.117188 C 88.097656 20.242188 88.085938 19.371094 88.085938 18.496094 C 88.089844 18.136719 88.152344 17.84375 88.632812 17.839844 C 89.109375 17.832031 89.179688 18.097656 89.171875 18.476562 C 89.167969 18.65625 89.140625 18.847656 89.3125 19.078125 C 89.789062 18.605469 90.050781 17.910156 90.835938 17.796875 M 91.71875 23.265625 C 92.246094 22.074219 92.214844 20.847656 91.933594 19.605469 C 91.835938 19.171875 91.667969 18.808594 91.195312 18.699219 C 90.710938 18.589844 90.46875 18.945312 90.253906 19.269531 C 89.511719 20.386719 89.128906 21.613281 89.160156 22.96875 C 89.179688 24.011719 89.648438 24.429688 90.660156 24.203125 C 91.128906 24.097656 91.464844 23.785156 91.71875 23.265625 Z M 91.71875 23.265625 "/>
<path style=" stroke:none;fill-rule:nonzero;fill:rgb(0%,0%,0%);fill-opacity:1;" d="M 56.566406 17.324219 C 57 17.9375 56.453125 18.144531 56.152344 18.386719 C 55.742188 18.71875 55.628906 18.257812 55.472656 18.03125 C 55.101562 17.496094 54.640625 17.109375 53.96875 17.027344 C 52.933594 16.898438 52.105469 17.457031 51.777344 18.726562 C 51.417969 20.113281 51.347656 21.515625 52.125 22.839844 C 52.757812 23.921875 53.789062 24.183594 54.796875 23.445312 C 55.015625 23.285156 55.214844 23.09375 55.382812 22.886719 C 55.632812 22.578125 55.855469 22.550781 56.164062 22.816406 C 56.488281 23.089844 56.527344 23.332031 56.25 23.65625 C 55 25.089844 52.996094 25.308594 51.660156 24.105469 C 49.945312 22.558594 49.761719 19.539062 50.980469 17.519531 C 52.304688 15.324219 55.550781 15.679688 56.566406 17.324219 Z M 56.566406 17.324219 "/>
<path style=" stroke:none;fill-rule:nonzero;fill:rgb(0%,0%,0%);fill-opacity:1;" d="M 70.113281 24.804688 C 69.355469 24.507812 68.917969 23.964844 68.726562 23.25 C 68.3125 21.71875 68.253906 20.203125 69.125 18.785156 C 69.949219 17.441406 71.792969 17.152344 72.976562 18.203125 C 73.570312 18.726562 73.75 19.472656 73.789062 20.234375 C 73.847656 21.261719 74.046875 21.152344 72.921875 21.386719 C 72.046875 21.566406 71.175781 21.761719 70.292969 21.890625 C 69.75 21.972656 69.574219 22.207031 69.679688 22.726562 C 69.804688 23.339844 69.945312 23.925781 70.679688 24.078125 C 71.527344 24.253906 72.132812 23.988281 72.539062 23.214844 C 72.714844 22.875 72.910156 22.808594 73.230469 22.988281 C 73.589844 23.1875 73.617188 23.433594 73.40625 23.757812 C 72.734375 24.816406 71.621094 25.183594 70.113281 24.804688 M 70.777344 18.539062 C 69.933594 18.914062 69.824219 19.722656 69.667969 20.484375 C 69.609375 20.785156 69.835938 20.894531 70.101562 20.847656 C 70.8125 20.714844 71.519531 20.570312 72.226562 20.417969 C 72.519531 20.355469 72.625 20.171875 72.574219 19.867188 C 72.421875 18.96875 71.816406 18.480469 70.777344 18.539062 Z M 70.777344 18.539062 "/>
<path style=" stroke:none;fill-rule:nonzero;fill:rgb(0%,0%,0%);fill-opacity:1;" d="M 111.019531 24.582031 C 111.082031 22.996094 111.1875 21.460938 110.964844 19.929688 C 110.910156 19.570312 110.867188 19.132812 110.414062 19.042969 C 109.949219 18.949219 109.6875 19.3125 109.476562 19.640625 C 108.9375 20.46875 108.835938 21.421875 108.769531 22.375 C 108.722656 23.039062 108.601562 23.691406 108.695312 24.363281 C 108.746094 24.734375 108.644531 25.097656 108.160156 25.109375 C 107.691406 25.121094 107.472656 24.859375 107.5 24.402344 C 107.613281 22.472656 107.617188 20.539062 107.582031 18.605469 C 107.574219 18.199219 107.789062 17.980469 108.207031 18.019531 C 108.582031 18.050781 108.933594 18.121094 108.84375 18.640625 C 108.832031 18.71875 108.84375 18.796875 108.84375 18.867188 C 109.039062 18.914062 109.101562 18.789062 109.167969 18.6875 C 109.894531 17.609375 111.289062 17.699219 111.855469 18.871094 C 112.136719 19.457031 112.210938 20.097656 112.269531 20.742188 C 112.382812 21.988281 112.074219 23.226562 112.234375 24.472656 C 112.269531 24.757812 112.144531 25.035156 111.828125 25.085938 C 111.472656 25.140625 111.101562 25.121094 111.019531 24.582031 Z M 111.019531 24.582031 "/>
<path style=" stroke:none;fill-rule:nonzero;fill:rgb(0%,0%,0%);fill-opacity:1;" d="M 59.109375 22.792969 C 59.128906 22.96875 59.125 23.097656 59.15625 23.214844 C 59.238281 23.566406 59.339844 23.933594 59.746094 24.023438 C 60.136719 24.109375 60.421875 23.863281 60.65625 23.589844 C 61.4375 22.671875 61.65625 21.554688 61.71875 20.398438 C 61.757812 19.671875 61.746094 18.941406 61.753906 18.214844 C 61.761719 17.859375 61.875 17.609375 62.292969 17.609375 C 62.722656 17.605469 62.890625 17.828125 62.882812 18.230469 C 62.859375 19.355469 62.847656 20.476562 62.8125 21.597656 C 62.78125 22.46875 62.917969 23.339844 62.792969 24.210938 C 62.75 24.511719 62.765625 24.804688 62.335938 24.800781 C 61.914062 24.800781 61.726562 24.609375 61.734375 24.195312 C 61.738281 23.910156 61.734375 23.625 61.628906 23.316406 C 61.453125 23.605469 61.292969 23.90625 61.101562 24.1875 C 60.390625 25.207031 59.078125 25.15625 58.425781 24.089844 C 58.101562 23.558594 57.976562 22.96875 57.972656 22.359375 C 57.96875 21.03125 57.984375 19.699219 57.996094 18.367188 C 58 17.980469 58.007812 17.59375 58.570312 17.605469 C 59.121094 17.617188 59.117188 17.992188 59.128906 18.382812 C 59.183594 19.839844 58.996094 21.289062 59.109375 22.792969 Z M 59.109375 22.792969 "/>
<path style=" stroke:none;fill-rule:nonzero;fill:rgb(0%,0%,0%);fill-opacity:1;" d="M 102.214844 24.402344 C 101.269531 23.246094 101.207031 21.9375 101.394531 20.585938 C 101.5 19.839844 101.707031 19.101562 102.269531 18.558594 C 103.472656 17.386719 105.316406 17.769531 105.960938 19.375 C 106.59375 20.945312 106.65625 22.527344 105.667969 24.035156 C 104.785156 25.386719 103.4375 25.5625 102.214844 24.402344 M 102.511719 21.691406 C 102.4375 22.351562 102.597656 22.976562 102.871094 23.566406 C 103.261719 24.414062 104.253906 24.519531 104.6875 23.71875 C 105.414062 22.359375 105.371094 20.921875 104.828125 19.507812 C 104.652344 19.0625 104.25 18.757812 103.738281 18.828125 C 103.242188 18.894531 102.925781 19.273438 102.816406 19.738281 C 102.675781 20.339844 102.460938 20.9375 102.511719 21.691406 Z M 102.511719 21.691406 "/>
<path style=" stroke:none;fill-rule:nonzero;fill:rgb(0%,0%,0%);fill-opacity:1;" d="M 113.757812 23.78125 C 114.175781 23.792969 114.425781 24.082031 114.757812 24.203125 C 115.332031 24.40625 115.703125 24.183594 115.722656 23.574219 C 115.742188 22.949219 115.414062 22.519531 114.90625 22.199219 C 114.488281 21.929688 114.078125 21.671875 113.828125 21.199219 C 113.359375 20.300781 113.523438 19.46875 114.011719 18.664062 C 114.511719 17.839844 116.109375 17.78125 116.714844 18.539062 C 116.847656 18.703125 116.816406 18.847656 116.695312 18.984375 C 116.507812 19.203125 116.304688 19.496094 115.976562 19.328125 C 115.515625 19.097656 115.082031 18.753906 114.757812 19.476562 C 114.519531 20.007812 114.734375 20.535156 115.390625 20.921875 C 116.449219 21.542969 116.804688 22.503906 116.757812 23.660156 C 116.726562 24.402344 116.300781 24.925781 115.625 25.15625 C 114.941406 25.394531 114.253906 25.21875 113.699219 24.765625 C 113.363281 24.492188 113.378906 24.113281 113.757812 23.78125 Z M 113.757812 23.78125 "/>
<path style=" stroke:none;fill-rule:nonzero;fill:rgb(0%,0%,0%);fill-opacity:1;" d="M 97.175781 18.761719 C 95.761719 18.820312 95.796875 18.820312 95.855469 20.234375 C 95.890625 21.164062 95.789062 22.101562 95.78125 23.035156 C 95.777344 23.875 96.039062 24.175781 96.851562 24.398438 C 97.101562 24.46875 97.457031 24.472656 97.410156 24.851562 C 97.359375 25.234375 97.007812 25.144531 96.753906 25.140625 C 95.34375 25.125 94.746094 24.535156 94.726562 23.121094 C 94.710938 21.980469 94.722656 20.835938 94.707031 19.695312 C 94.699219 19.226562 94.636719 18.765625 94.066406 18.6875 C 94.003906 18.53125 94.046875 18.421875 94.136719 18.375 C 94.660156 18.109375 94.777344 17.667969 94.726562 17.125 C 94.699219 16.839844 94.679688 16.515625 95.117188 16.492188 C 95.53125 16.46875 95.875 16.628906 95.847656 17.058594 C 95.796875 17.90625 96.257812 18.027344 96.933594 17.960938 C 97.148438 17.9375 97.359375 17.980469 97.433594 18.230469 C 97.5 18.453125 97.46875 18.644531 97.175781 18.761719 Z M 97.175781 18.761719 "/>
<path style=" stroke:none;fill-rule:nonzero;fill:rgb(0%,0%,0%);fill-opacity:1;" d="M 66.292969 24.910156 C 65.164062 24.675781 64.769531 24.179688 64.738281 22.945312 C 64.710938 21.90625 64.722656 20.863281 64.714844 19.824219 C 64.710938 19.210938 64.972656 18.46875 63.863281 18.339844 C 64.675781 17.957031 64.804688 17.359375 64.734375 16.644531 C 64.703125 16.335938 64.980469 16.242188 65.253906 16.234375 C 65.535156 16.230469 65.746094 16.324219 65.78125 16.640625 C 65.796875 16.765625 65.800781 16.890625 65.800781 17.015625 C 65.808594 17.5 66.027344 17.75 66.539062 17.703125 C 66.683594 17.691406 66.828125 17.714844 66.976562 17.707031 C 67.285156 17.695312 67.515625 17.78125 67.519531 18.144531 C 67.519531 18.550781 67.21875 18.546875 66.945312 18.53125 C 65.679688 18.46875 65.765625 18.574219 65.800781 19.757812 C 65.832031 20.898438 65.714844 22.039062 65.863281 23.179688 C 65.949219 23.832031 66.285156 24.132812 66.894531 24.234375 C 67.160156 24.277344 67.574219 24.222656 67.519531 24.65625 C 67.472656 25.035156 67.097656 24.894531 66.847656 24.917969 C 66.683594 24.929688 66.515625 24.914062 66.292969 24.910156 Z M 66.292969 24.910156 "/>
<path style=" stroke:none;fill-rule:nonzero;fill:rgb(0%,0%,0%);fill-opacity:1;" d="M 100.039062 22 C 100.019531 22.8125 100.007812 23.558594 99.984375 24.304688 C 99.972656 24.679688 99.933594 25.035156 99.421875 25.015625 C 98.933594 25 98.867188 24.691406 98.867188 24.292969 C 98.871094 22.425781 98.863281 20.554688 98.867188 18.6875 C 98.871094 18.347656 98.929688 18.011719 99.351562 17.917969 C 99.785156 17.824219 100.101562 18.066406 100.066406 18.511719 C 99.976562 19.652344 100.027344 20.796875 100.039062 22 Z M 100.039062 22 "/>
<path style=" stroke:none;fill-rule:nonzero;fill:rgb(0%,0%,0%);fill-opacity:1;" d="M 99.851562 17 C 99.554688 17.289062 99.277344 17.351562 99.03125 17.023438 C 98.785156 16.695312 98.867188 16.351562 99.085938 16.046875 C 99.25 15.816406 99.511719 15.761719 99.742188 15.933594 C 100.125 16.21875 100.148438 16.578125 99.851562 17 Z M 99.851562 17 "/>
<path style=" stroke:none;fill-rule:nonzero;fill:rgb(0%,0%,0%);fill-opacity:1;" d="M 21.851562 23.296875 C 21.761719 22.867188 21.964844 22.53125 22.066406 22.203125 C 22.027344 22.136719 22.015625 22.085938 21.984375 22.070312 C 20.839844 21.390625 20.820312 21.183594 21.886719 20.332031 C 22.105469 20.160156 22.074219 20 21.992188 19.792969 C 21.855469 19.449219 21.78125 19.097656 22.117188 18.820312 C 22.433594 18.550781 22.792969 18.394531 23.207031 18.605469 C 23.558594 18.785156 23.761719 18.695312 23.941406 18.328125 C 24.332031 17.527344 24.964844 17.496094 25.425781 18.273438 C 25.667969 18.679688 25.90625 18.730469 26.335938 18.636719 C 27.207031 18.449219 27.667969 18.980469 27.386719 19.828125 C 27.28125 20.152344 27.34375 20.300781 27.628906 20.476562 C 28.390625 20.949219 28.394531 21.421875 27.636719 21.871094 C 27.300781 22.066406 27.164062 22.21875 27.304688 22.640625 C 27.589844 23.496094 27.042969 24.039062 26.167969 23.792969 C 25.777344 23.683594 25.558594 23.710938 25.316406 24.101562 C 24.851562 24.851562 24.359375 24.835938 23.902344 24.097656 C 23.679688 23.738281 23.429688 23.679688 23.066406 23.792969 C 22.554688 23.953125 22.113281 23.898438 21.851562 23.296875 M 23.140625 23.210938 C 23.535156 23.035156 23.851562 22.777344 24.039062 22.382812 C 24.128906 22.1875 24.171875 21.96875 24.019531 21.792969 C 23.859375 21.601562 23.644531 21.667969 23.445312 21.746094 C 23.019531 21.914062 22.703125 22.199219 22.511719 22.617188 C 22.425781 22.808594 22.316406 23.007812 22.480469 23.199219 C 22.644531 23.398438 22.855469 23.320312 23.140625 23.210938 M 26.535156 23.328125 C 26.925781 23.242188 26.882812 22.96875 26.773438 22.703125 C 26.585938 22.230469 26.203125 21.953125 25.753906 21.761719 C 25.582031 21.6875 25.390625 21.613281 25.238281 21.792969 C 25.101562 21.953125 25.121094 22.160156 25.195312 22.324219 C 25.445312 22.855469 25.839844 23.230469 26.535156 23.328125 M 25.1875 20.257812 C 25.105469 20.746094 25.40625 20.789062 25.75 20.699219 C 26.234375 20.570312 26.546875 20.203125 26.816406 19.808594 C 26.921875 19.648438 26.988281 19.46875 26.851562 19.289062 C 26.714844 19.113281 26.519531 19.136719 26.339844 19.183594 C 25.804688 19.328125 25.449219 19.679688 25.1875 20.257812 M 23.398438 19.285156 C 22.707031 19.007812 22.460938 19.085938 22.523438 19.5625 C 22.582031 20.019531 23.257812 20.671875 23.722656 20.714844 C 24.101562 20.746094 24.28125 20.597656 24.160156 20.195312 C 24.046875 19.816406 23.773438 19.5625 23.398438 19.285156 Z M 23.398438 19.285156 "/>
</g>
</svg>
